# xmcd CD database file
#
# Track frame offsets:
#	187
#	22690
#	44042
#	63770
#	79637
#	96972
#	116572
#	137070
#	155907
#	177915
#	207365
#
# Disc length: 3200 seconds
#
# Revision: 5
# Processed by: cddbd v1.5.2PL0 Copyright (c) Steve Scherf et al.
# Submitted via: CDex 1.70beta2
#
DISCID=910c7e0b
DTITLE=Scritti Politti - Provision
DYEAR=1988
DGENRE=Rock
TTITLE0=Boom! There She Was
TTITLE1=Overnite
TTITLE2=First Boy In This Town (Lovesick)
TTITLE3=All That We Are
TTITLE4=Best Thing Ever
TTITLE5=Oh Patti (Don't Feel Sorry For Loverboy)
TTITLE6=Bam Salute
TTITLE7=Sugar And Spice
TTITLE8=Philosophy Now
TTITLE9=Oh Patti (Extended Mix)
TTITLE10=Boom! There She Was (Dub Mix)
EXTD=YEAR: 1988
EXTT0=
EXTT1=
EXTT2=
EXTT3=
EXTT4=
EXTT5=
EXTT6=
EXTT7=
EXTT8=
EXTT9=
EXTT10=
PLAYORDER=
